<svg width="169" height="33" viewBox="0 0 169 33" fill="none" xmlns="http://www.w3.org/2000/svg">
<path d="M13.7506 4.45873L7.57818 10.9461L18.4987 22.4236L24.6712 15.9363L13.7506 4.45873Z" fill="white"/>
<path d="M38.4405 22.4236L45.5626 14.9383L35.5917 4.45873L28.4696 11.9441L38.4405 22.4236Z" fill="white"/>
<path fill-rule="evenodd" clip-rule="evenodd" d="M13.7506 3.5L24.6712 14.9776L35.5917 3.5L45.5626 13.9795L51.279 7.97156L52.1912 8.93029L38.4405 23.3824L28.4696 12.9028L18.4987 23.3824L7.57818 11.9048L0.912194 18.9108L0 17.9521L13.7506 3.5ZM8.49037 10.9461L18.4987 21.4649L23.759 15.9363L13.7506 5.41745L8.49037 10.9461ZM29.3818 11.9441L38.4405 21.4649L44.6504 14.9383L35.5917 5.41745L29.3818 11.9441Z" fill="white"/>
<path d="M83.721 1.61544V2.32624L74.0949 23.4885H75.2006C77.1518 23.4885 78.8646 22.8746 80.3388 21.6469C81.8348 20.3976 82.908 18.6314 83.5584 16.3483H84.1437L83.7535 24.2316H67.103V23.6177L76.8266 2.32624H75.4933C73.5637 2.32624 72.1003 2.74625 71.103 3.58628C70.1057 4.42631 68.9783 6.14945 67.7209 8.75569H67.1355L67.6233 1.61544H83.721Z" fill="white"/>
<path d="M83.9974 9.43418V8.85262H93.4284V9.43418H91.6722L95.217 20.1607L98.9894 9.43418H96.8105V8.85262H101.396V9.43418H99.7699L93.6885 26.8486C92.9731 28.8733 92.1709 30.2841 91.282 31.0811C90.3931 31.8996 89.3091 32.3088 88.0299 32.3088C86.7508 32.3088 85.7427 32.018 85.0055 31.4365C84.2684 30.8549 83.8998 30.1118 83.8998 29.2072C83.8998 28.3025 84.1383 27.6133 84.6153 27.1394C85.0923 26.6655 85.721 26.4286 86.5015 26.4286C88.3009 26.4286 89.2007 27.1717 89.2007 28.6579C89.2007 28.981 89.1356 29.3687 89.0056 29.821H87.8673C87.6939 30.3164 87.6722 30.7257 87.8023 31.0488C87.9324 31.3719 88.2251 31.5334 88.6804 31.5334C89.5692 31.5334 90.3606 31.0919 91.0544 30.2087C91.7481 29.3472 92.4094 28.0225 93.0381 26.2348L93.7536 24.2316H90.8918L85.3307 9.43418H83.9974Z" fill="white"/>
<path d="M101.468 8.85262H109.306V11.825C110.021 9.62803 111.593 8.52953 114.021 8.52953C116.471 8.52953 117.956 9.69265 118.477 12.0189C119.235 9.69265 120.829 8.52953 123.257 8.52953C126.444 8.52953 128.038 10.3281 128.038 13.9251V23.6501H129.859V24.2316H120.851V23.6501H121.989V13.1497C121.989 11.5127 121.848 10.5542 121.566 10.2742C121.436 10.145 121.262 10.0804 121.046 10.0804C120.417 10.0804 119.864 10.5004 119.387 11.3404C118.91 12.1804 118.672 13.2466 118.672 14.539V23.6501H119.842V24.2316H111.485V23.6501H112.623V13.1497C112.623 11.5127 112.482 10.5542 112.2 10.2742C112.07 10.145 111.897 10.0804 111.68 10.0804C111.073 10.0804 110.52 10.5434 110.021 11.4696C109.544 12.3743 109.306 13.462 109.306 14.7328V23.6501H110.476V24.2316H101.468V23.6501H103.257V9.43418H101.468V8.85262Z" fill="white"/>
<path d="M142.207 15.5405C142.207 13.322 142.098 11.8358 141.881 11.0819C141.665 10.3065 141.242 9.91881 140.613 9.91881C139.984 9.91881 139.421 10.3281 138.922 11.1465C138.423 11.9435 138.174 13.0205 138.174 14.3774V20.2899C138.174 21.2161 138.358 22.0023 138.727 22.6485C139.096 23.2947 139.638 23.6177 140.353 23.6177C141.068 23.6177 141.556 23.1439 141.816 22.1962C142.077 21.2484 142.207 19.5899 142.207 17.2206V15.5405ZM138.109 8.85262V11.405C138.955 9.48802 140.451 8.52953 142.597 8.52953C144.461 8.52953 145.903 9.19725 146.922 10.5327C147.963 11.8681 148.483 13.8928 148.483 16.6067C148.483 19.3207 147.919 21.3238 146.792 22.6162C145.686 23.9085 144.017 24.5547 141.784 24.5547C140.743 24.5547 139.963 24.4255 139.442 24.167C138.922 23.9085 138.499 23.5101 138.174 22.9716V31.3396H142.369V31.9211H130.337V31.3396H132.125V9.43418H130.402V8.85262H138.109Z" fill="white"/>
<path d="M149.455 0H157.293V11.825C157.64 10.8342 158.171 10.0373 158.886 9.43418C159.602 8.83108 160.686 8.52953 162.138 8.52953C165.499 8.52953 167.179 10.3281 167.179 13.9251V23.6501H169V24.2316H159.797V23.6501H161.13V13.1497C161.13 11.8573 161.043 11.0281 160.87 10.6619C160.696 10.2742 160.382 10.0804 159.927 10.0804C159.233 10.0804 158.615 10.5327 158.073 11.4373C157.553 12.342 157.293 13.4405 157.293 14.7328V23.6501H158.691V24.2316H149.455V23.6501H151.244V0.581559H149.455V0Z" fill="white"/>
</svg>
